<svg xmlns="http://www.w3.org/2000/svg" width="161" height="31" viewBox="0 0 161 31">
  <g id="logo" transform="translate(-138 -26)">
    <g id="LOGO-2" data-name="LOGO" transform="translate(138 26)">
      <g id="logo-3" data-name="logo" transform="translate(2 3)">
        <rect id="Rectangle_19" data-name="Rectangle 19" width="4" height="16" transform="translate(30 6)" fill="#34495f"/>
        <rect id="Rectangle_16" data-name="Rectangle 16" width="5" height="20" transform="translate(25 2)" fill="#3ab982"/>
        <rect id="Rectangle_21" data-name="Rectangle 21" width="5" height="20" transform="translate(48 2)" fill="#34495f"/>
        <path id="Rectangle_18" data-name="Rectangle 18" d="M0,0H6.5A6.5,6.5,0,0,1,13,6.5v0A6.5,6.5,0,0,1,6.5,13H0a0,0,0,0,1,0,0V0A0,0,0,0,1,0,0Z" transform="translate(29 2)" fill="#3ab982"/>
        <path id="Rectangle_17" data-name="Rectangle 17" d="M0,0H3.5A2.5,2.5,0,0,1,6,2.5v0A2.5,2.5,0,0,1,3.5,5H0A0,0,0,0,1,0,5V0A0,0,0,0,1,0,0Z" transform="translate(31 6)" fill="#34495f"/>
        <rect id="Rectangle_20" data-name="Rectangle 20" width="4" height="20" transform="translate(46 2)" fill="#3ab982"/>
        <g id="Group_2" data-name="Group 2" transform="translate(4 -0.96)">
          <path id="Subtraction_1" data-name="Subtraction 1" d="M-140-7.039h-5l12-21,12,21h-5l-7-13-7,13Z" transform="translate(139 30)" fill="#3ab982"/>
        </g>
      </g>
      <text id="MOVIE" transform="translate(60 25)" fill="#34495f" font-size="26" font-family="Inter-ExtraLightBETA, Inter" font-weight="200" letter-spacing="0.2em"><tspan x="0" y="0">MOVIE</tspan></text>
    </g>
    <path id="Subtraction_2" data-name="Subtraction 2" d="M3,13H-1L6,0l7,13H9L6,8,3,13Z" transform="translate(144 38)" fill="#34495f"/>
  </g>
</svg>
