<svg xmlns="http://www.w3.org/2000/svg" width="18.359" height="20.982" viewBox="0 0 18.359 20.982">
  <path id="trash-alt-regular" d="M10.983,17.048h.984a.492.492,0,0,0,.492-.492V7.7a.492.492,0,0,0-.492-.492h-.984a.492.492,0,0,0-.492.492v8.852A.492.492,0,0,0,10.983,17.048ZM17.7,3.278H14.326L12.933.955A1.967,1.967,0,0,0,11.245,0H7.114A1.967,1.967,0,0,0,5.427.955L4.033,3.278H.656A.656.656,0,0,0,0,3.934V4.59a.656.656,0,0,0,.656.656h.656V19.015a1.967,1.967,0,0,0,1.967,1.967h11.8a1.967,1.967,0,0,0,1.967-1.967V5.245H17.7a.656.656,0,0,0,.656-.656V3.934A.656.656,0,0,0,17.7,3.278ZM7.042,2.086a.246.246,0,0,1,.211-.119h3.852a.246.246,0,0,1,.211.119l.716,1.192H6.327Zm8.039,16.928H3.278V5.245h11.8ZM6.393,17.048h.984a.492.492,0,0,0,.492-.492V7.7a.492.492,0,0,0-.492-.492H6.393A.492.492,0,0,0,5.9,7.7v8.852A.492.492,0,0,0,6.393,17.048Z" transform="translate(0 0)" fill="#fff"/>
</svg>
